<?xml version="1.0" encoding="UTF-8"?>
<svg id="Layer_2" xmlns="http://www.w3.org/2000/svg" xmlns:xlink="http://www.w3.org/1999/xlink" viewBox="0 0 392.68 465.83">
  <defs>
    <style>
      .cls-1 {
        fill: url(#linear-gradient-2);
      }

      .cls-2 {
        fill: url(#linear-gradient-3);
      }

      .cls-3 {
        fill: lime;
      }

      .cls-4 {
        fill: url(#linear-gradient);
      }
    </style>
    <linearGradient id="linear-gradient" x1="63.72" y1="107.11" x2="171.13" y2="214.52" gradientUnits="userSpaceOnUse">
      <stop offset="0" stop-color="#fff"/>
      <stop offset=".1" stop-color="#f9f9f9"/>
      <stop offset=".24" stop-color="#e8e8e8"/>
      <stop offset=".39" stop-color="#cdcccc"/>
      <stop offset=".56" stop-color="#a7a6a6"/>
      <stop offset=".74" stop-color="#777475"/>
      <stop offset=".92" stop-color="#3d393a"/>
      <stop offset="1" stop-color="#231f20"/>
    </linearGradient>
    <linearGradient id="linear-gradient-2" x1="110.67" y1="210.32" x2="200.4" y2="300.05" gradientUnits="userSpaceOnUse">
      <stop offset="0" stop-color="#fff"/>
      <stop offset="1" stop-color="#231f20"/>
    </linearGradient>
    <linearGradient id="linear-gradient-3" x1="113.15" y1="265.63" x2="249.08" y2="401.56" xlink:href="#linear-gradient-2"/>
  </defs>
  <g id="Layer_2-2" data-name="Layer_2">
    <g>
      <path class="cls-4" d="M47.13,318.92c-17.79-25.32-22.79-61.42-9.1-89.12,7.47-15.92,19.22-28.73,32-41,8.84-8.8,16.86-17.16,26-25,5.97-5.2,16.33-13.1,22-18,21.72-17.81,51.68-38.77,70.68-53.75V0l-89,72c-14.45,12.28-56,56-68,71l-15,22C.71,190-4.2,225.55,3.71,252l8,22c5.03,11.08,17.52,30.27,26,39l17.36,17.57c-2.92-4.27-5.85-8.61-7.94-11.65Z"/>
      <path class="cls-1" d="M188.71,195.96v-83.91c-15.19,11.86-54.69,42.68-77.83,60.74-8.79,6.82-17.15,15.59-25.85,23.55-5.4,5.07-8.84,8.48-13.52,13.93-7.38,8.82-15.8,17.18-21.15,27.57-5.23,9.94-9.43,19.97-10.23,31.52-1.2,13.74,1.11,27.33,6.43,40.03,2.83,8.15,8.59,17.6,13.23,25.96l32.54,32.94c-3.21-5-7.1-11.07-9.51-14.89-1.39-2.34-2.72-3.82-3.56-6.2-3.22-7.89-5.18-18.38-4.59-26.96.42-5.04,1.47-11.22,2.04-16.08,3.1-15.39,15.57-32.52,26.15-44.2,5.08-4.94,12.17-11.34,18.06-16.06,10.11-8.11,20.1-15.82,29.78-22.39,10-6.63,33.67-23.3,37.2-25.16.25-.16.52-.29.81-.41Z"/>
      <path class="cls-2" d="M188.16,216.72l-.32.09-3.81.99c-1.67.42-4.58,2.02-6,3-5.45,3.79-11.61,7.91-16,11-12.54,8.88-25.55,17.8-37,28-5.97,5.25-13.04,11.18-19,17-10.81,9.56-17.42,23.01-21,37-1.09,3.94-2.34,7.92-2.78,12.19-.66,5.97.16,11.95,1.78,17.81.67,3.04,4.7,13.17,6,16,2.18,4.92,1.77,4.75,3.96,9.68.13.31.26.59.39.87l94.34,95.48v-249.28c-.24-.01-.26.06-.56.17Z"/>
    </g>
    <g>
      <path class="cls-3" d="M345.54,318.92c17.79-25.32,22.79-61.42,9.1-89.12-7.47-15.92-19.22-28.73-32-41-8.84-8.8-16.86-17.16-26-25-5.97-5.2-16.33-13.1-22-18-21.72-17.81-51.68-38.77-70.68-53.75V0l89,72c14.45,12.28,56,56,68,71l15,22c16,25,20.91,60.55,13,87l-8,22c-5.03,11.08-17.52,30.27-26,39l-17.36,17.57c2.92-4.27,5.85-8.61,7.94-11.65Z"/>
      <path class="cls-3" d="M203.96,195.96v-83.91c15.19,11.86,54.69,42.68,77.83,60.74,8.79,6.82,17.15,15.59,25.85,23.55,5.4,5.07,8.84,8.48,13.52,13.93,7.38,8.82,15.8,17.18,21.15,27.57,5.23,9.94,9.43,19.97,10.23,31.52,1.2,13.74-1.11,27.33-6.43,40.03-2.83,8.15-8.59,17.6-13.23,25.96l-32.54,32.94c3.21-5,7.1-11.07,9.51-14.89,1.39-2.34,2.72-3.82,3.56-6.2,3.22-7.89,5.18-18.38,4.59-26.96-.42-5.04-1.47-11.22-2.04-16.08-3.1-15.39-15.57-32.52-26.15-44.2-5.08-4.94-12.17-11.34-18.06-16.06-10.11-8.11-20.1-15.82-29.78-22.39-10-6.63-33.67-23.3-37.2-25.16-.25-.16-.52-.29-.81-.41Z"/>
      <path class="cls-3" d="M204.52,216.72l.32.09,3.81.99c1.67.42,4.58,2.02,6,3,5.45,3.79,11.61,7.91,16,11,12.54,8.88,25.55,17.8,37,28,5.97,5.25,13.04,11.18,19,17,10.81,9.56,17.42,23.01,21,37,1.09,3.94,2.34,7.92,2.78,12.19.66,5.97-.16,11.95-1.78,17.81-.67,3.04-4.7,13.17-6,16-2.18,4.92-1.77,4.75-3.96,9.68-.13.31-.26.59-.39.87l-94.34,95.48v-249.28c.24-.01.26.06.56.17Z"/>
    </g>
  </g>
</svg>